<?xml version="1.0" encoding="utf-8"?>
<!-- Generator: Adobe Illustrator 26.4.1, SVG Export Plug-In . SVG Version: 6.00 Build 0)  -->
<svg version="1.1" id="Capa_1" xmlns="http://www.w3.org/2000/svg" xmlns:xlink="http://www.w3.org/1999/xlink" x="0px" y="0px"
	 viewBox="0 0 100 100" style="enable-background:new 0 0 100 100;" xml:space="preserve">
<g>
	<path d="M62.54,28.66c-0.44,0.07-0.79,0.42-0.86,0.86c-2.05,12.85,10.22,11.07,11.56,10.84c0,10.44-0.06,9.82,0.17,10.44
		c0.87,2.29,4.13,2.3,4.99,0c0.24-0.63,0.17-0.07,0.17-10.44c1.33,0.23,13.61,2.01,11.56-10.84c-0.07-0.44-0.42-0.79-0.86-0.86
		c-7.3-1.16-9.88,2.29-10.7,5.74V21.88c1.33,0.23,13.61,2.01,11.56-10.84c-0.07-0.44-0.42-0.79-0.86-0.86
		c-7.3-1.16-9.88,2.29-10.7,5.74V7.08c0-1.44-1.1-2.67-2.54-2.74c-1.53-0.07-2.8,1.15-2.8,2.66v8.91c-0.83-3.45-3.41-6.89-10.7-5.73
		c-0.44,0.07-0.79,0.42-0.86,0.86c-2.05,12.85,10.22,11.07,11.56,10.84v12.51C72.42,30.95,69.84,27.5,62.54,28.66L62.54,28.66z"/>
	<path d="M57.7,70.66H42.3l-8.88,15.38c-2.4,4.15,0.59,9.34,5.39,9.34h22.38c4.79,0,7.79-5.18,5.39-9.34L57.7,70.66z"/>
	<path d="M91.97,56.13H8.03c-1.96,0-3.56,1.59-3.56,3.56v2.06c0,1.96,1.59,3.56,3.56,3.56h83.94c1.96,0,3.56-1.59,3.56-3.56v-2.06
		C95.53,57.72,93.93,56.13,91.97,56.13z"/>
	<path d="M27.8,9.77V7c0-1.48-1.2-2.67-2.67-2.67c-1.48,0-2.67,1.2-2.67,2.67v9.52C23.38,13.73,25.23,11.31,27.8,9.77z"/>
	<path d="M27.76,21.75c2.1,0,4.92-0.12,6.68-1.88c1.3-1.3,1.81-3.42,1.52-6.32C30.28,12.97,27.54,15.43,27.76,21.75z"/>
	<path d="M16.71,50.8H33.8c0.91-0.22,1.75-0.76,2.35-1.49c9.12-11.28,3.34-21.51-2.62-22.27c-2.31-0.29-4.47,0.83-6.24,3.24
		c-1.07,1.45-3.24,1.45-4.31,0c-1.77-2.41-3.94-3.54-6.25-3.24c-5.96,0.76-11.74,10.99-2.62,22.27
		C14.73,50.07,15.67,50.61,16.71,50.8z"/>
</g>
</svg>
