<?xml version="1.0" encoding="utf-8"?>
<!-- Generator: Adobe Illustrator 26.5.0, SVG Export Plug-In . SVG Version: 6.00 Build 0)  -->
<svg version="1.1" id="Capa_1" xmlns="http://www.w3.org/2000/svg" xmlns:xlink="http://www.w3.org/1999/xlink" x="0px" y="0px"
	 viewBox="0 0 200 200" style="enable-background:new 0 0 200 200;" xml:space="preserve">
<g>
	<g id="_x31_5_38_">
		<g>
			<path d="M48.96,46.93h2.86c4.34,0,7.86-3.52,7.86-7.86V17.38V9.26c0-4.34-3.52-7.86-7.86-7.86h-2.86c-4.34,0-7.86,3.52-7.86,7.86
				v8.11v21.69C41.1,43.41,44.62,46.93,48.96,46.93z"/>
			<path d="M149.78,46.73h2.86c4.34,0,7.86-3.52,7.86-7.86V15.32V9.07c0-4.34-3.52-7.86-7.86-7.86h-2.86
				c-4.34,0-7.86,3.52-7.86,7.86v6.25v23.55C141.92,43.21,145.44,46.73,149.78,46.73z"/>
			<path d="M187.06,17.38h-20.17v23.55c0,7.86-6.39,12.19-14.25,12.19h-2.86c-7.86,0-14.25-6.39-14.25-14.25v-21.5H66.06v21.69
				c0,7.86-6.39,14.25-14.25,14.25h-2.86c-7.86,0-14.25-6.39-14.25-14.25V17.38H12.94c-7.05,0-12.78,5.73-12.78,12.78v154.41
				c0,7.05,5.73,12.78,12.78,12.78h174.11c7.05,0,12.78-5.73,12.78-12.78V30.16C199.84,23.11,194.1,17.38,187.06,17.38z
				 M187.06,184.57H12.94l0-116.61h174.12L187.06,184.57C187.07,184.57,187.06,184.57,187.06,184.57z"/>
			<path d="M106.6,107.08h22.94c0.91,0,1.65-0.74,1.65-1.65V85.56c0-0.91-0.74-1.65-1.65-1.65H106.6c-0.91,0-1.65,0.74-1.65,1.65
				v19.87C104.95,106.34,105.69,107.08,106.6,107.08z"/>
			<path d="M144.04,107.08h22.94c0.91,0,1.65-0.74,1.65-1.65V85.56c0-0.91-0.74-1.65-1.65-1.65h-22.94c-0.91,0-1.65,0.74-1.65,1.65
				v19.87C142.4,106.34,143.13,107.08,144.04,107.08z"/>
			<path d="M31.71,139.6h22.94c0.91,0,1.65-0.74,1.65-1.65v-19.87c0-0.91-0.74-1.65-1.65-1.65H31.71c-0.91,0-1.65,0.74-1.65,1.65
				v19.87C30.06,138.86,30.8,139.6,31.71,139.6z"/>
			<path d="M69.15,139.6H92.1c0.91,0,1.65-0.74,1.65-1.65v-19.87c0-0.91-0.74-1.65-1.65-1.65H69.15c-0.91,0-1.65,0.74-1.65,1.65
				v19.87C67.51,138.86,68.24,139.6,69.15,139.6z"/>
			<path d="M106.6,139.6h22.94c0.91,0,1.65-0.74,1.65-1.65v-19.87c0-0.91-0.74-1.65-1.65-1.65H106.6c-0.91,0-1.65,0.74-1.65,1.65
				v19.87C104.95,138.86,105.69,139.6,106.6,139.6z"/>
			<path d="M144.04,139.6h22.94c0.91,0,1.65-0.74,1.65-1.65v-19.87c0-0.91-0.74-1.65-1.65-1.65h-22.94c-0.91,0-1.65,0.74-1.65,1.65
				v19.87C142.4,138.86,143.13,139.6,144.04,139.6z"/>
			<path d="M54.65,148.97H31.71c-0.91,0-1.65,0.74-1.65,1.65v19.87c0,0.91,0.74,1.65,1.65,1.65h22.94c0.91,0,1.65-0.74,1.65-1.65
				v-19.87C56.3,149.7,55.56,148.97,54.65,148.97z"/>
			<path d="M92.1,148.97H69.15c-0.91,0-1.65,0.74-1.65,1.65v19.87c0,0.91,0.74,1.65,1.65,1.65H92.1c0.91,0,1.65-0.74,1.65-1.65
				v-19.87C93.74,149.7,93.01,148.97,92.1,148.97z"/>
			<path d="M129.54,148.97H106.6c-0.91,0-1.65,0.74-1.65,1.65v19.87c0,0.91,0.74,1.65,1.65,1.65h22.94c0.91,0,1.65-0.74,1.65-1.65
				v-19.87C131.19,149.7,130.45,148.97,129.54,148.97z"/>
			<path d="M166.99,148.97h-22.94c-0.91,0-1.65,0.74-1.65,1.65v19.87c0,0.91,0.74,1.65,1.65,1.65h22.94c0.91,0,1.65-0.74,1.65-1.65
				v-19.87C168.63,149.7,167.9,148.97,166.99,148.97z"/>
		</g>
	</g>
</g>
</svg>
