<?xml version="1.0" encoding="utf-8"?>
<!-- Generator: Adobe Illustrator 26.4.1, SVG Export Plug-In . SVG Version: 6.00 Build 0)  -->
<svg version="1.1" id="Capa_1" xmlns="http://www.w3.org/2000/svg" xmlns:xlink="http://www.w3.org/1999/xlink" x="0px" y="0px"
	 viewBox="0 0 500 500" style="enable-background:new 0 0 500 500;" xml:space="preserve">
<style type="text/css">
	.st0{fill:none;stroke:#315454;stroke-width:7;stroke-miterlimit:10;}
</style>
<g>
	<path class="st0" d="M80.3,179.1h97.9V80.3c0-39.4,32-71.4,71.4-71.4h0c39.4,0,71.4,32,71.4,71.4v98.8h98.8
		c39.4,0,71.4,32,71.4,71.4v0c0,39.4-32,71.4-71.4,71.4h-98.8v97.9c0,39.4-32,71.4-71.4,71.4h0c-39.4,0-71.4-32-71.4-71.4v-97.9
		H80.3c-39.4,0-71.4-32-71.4-71.4v0C8.9,211,40.9,179.1,80.3,179.1z"/>
</g>
</svg>
