<?xml version="1.0" encoding="utf-8"?>
<!-- Generator: Adobe Illustrator 26.4.1, SVG Export Plug-In . SVG Version: 6.00 Build 0)  -->
<svg version="1.1" id="Capa_1" xmlns="http://www.w3.org/2000/svg" xmlns:xlink="http://www.w3.org/1999/xlink" x="0px" y="0px"
	 viewBox="0 0 100 100" style="enable-background:new 0 0 100 100;" xml:space="preserve">
<path d="M54.5,4.79c-1.24-2.49-4.27-3.5-6.75-2.25c-0.98,0.49-1.77,1.28-2.25,2.25L32.1,31.58H67.9L54.5,4.79z M50,26.91
	c-2.58,0-4.67-2.09-4.67-4.67v-6.22c0-2.58,2.09-4.67,4.67-4.67s4.67,2.09,4.67,4.67h-3.11c0-0.86-0.7-1.56-1.56-1.56
	s-1.56,0.7-1.56,1.56v6.22c0,0.86,0.7,1.56,1.56,1.56s1.56-0.7,1.56-1.56h3.11C54.67,24.82,52.58,26.91,50,26.91z"/>
<path d="M71.01,37.8H28.99L16.54,62.7h66.92L71.01,37.8z M50.78,53.36H50v4.67h-3.11V44.03c0-0.86,0.7-1.56,1.56-1.56h2.33
	c3.01,0,5.45,2.44,5.45,5.45C56.23,50.93,53.79,53.36,50.78,53.36z"/>
<path d="M50.78,45.58H50v4.67h0.78c1.29,0,2.33-1.05,2.33-2.33S52.07,45.58,50.78,45.58z"/>
<path d="M96.15,88.09l-9.58-19.17H13.43L3.85,88.09C2.6,90.58,3.61,93.6,6.1,94.85c0.7,0.35,1.47,0.53,2.26,0.53h83.3
	c2.78,0,5.04-2.25,5.04-5.03C96.69,89.57,96.5,88.79,96.15,88.09z M53.11,76.71h-4.67v3.11h4.67v3.11h-4.67v7.78h-3.11V75.15
	c0-0.86,0.7-1.56,1.56-1.56h6.22V76.71z"/>
</svg>
