<?xml version="1.0" encoding="utf-8"?>
<!-- Generator: Adobe Illustrator 26.5.0, SVG Export Plug-In . SVG Version: 6.00 Build 0)  -->
<svg version="1.1" id="Capa_1" xmlns="http://www.w3.org/2000/svg" xmlns:xlink="http://www.w3.org/1999/xlink" x="0px" y="0px"
	 viewBox="0 0 500 500" style="enable-background:new 0 0 500 500;" xml:space="preserve">
<path d="M489.17,380.86c-15.59-13.08-107.06-71-122.26-68.34c-7.14,1.27-12.6,7.35-27.21,24.78c-6.76,8.58-14.18,16.62-22.2,24.03
	c-14.69-3.55-28.91-8.82-42.36-15.7c-52.76-25.69-95.38-68.32-121.05-121.08c-6.88-13.45-12.15-27.67-15.7-42.36
	c7.42-8.02,15.45-15.44,24.03-22.2c17.41-14.61,23.52-20.04,24.78-27.21c2.66-15.24-55.31-106.67-68.34-122.26
	c-5.46-6.46-10.42-10.8-16.77-10.8C83.69-0.27,0.4,102.72,0.4,116.07c0,1.09,1.78,108.31,137.2,246.07
	c137.77,135.41,244.98,137.2,246.07,137.2c13.35,0,116.34-83.29,116.34-101.71C500,391.28,495.66,386.32,489.17,380.86
	L489.17,380.86z"/>
<path d="M375.1,231.69h35.69c-0.09-78.8-63.95-142.66-142.74-142.74v35.69C327.14,124.69,375.04,172.59,375.1,231.69z"/>
<path d="M464.31,231.69H500C499.85,103.65,396.09-0.12,268.04-0.27v35.69C376.39,35.55,464.19,123.35,464.31,231.69z"/>
</svg>
