<?xml version="1.0" encoding="utf-8"?>
<!-- Generator: Adobe Illustrator 26.4.1, SVG Export Plug-In . SVG Version: 6.00 Build 0)  -->
<svg version="1.1" id="Capa_1" xmlns="http://www.w3.org/2000/svg" xmlns:xlink="http://www.w3.org/1999/xlink" x="0px" y="0px"
	 viewBox="0 0 100 100" style="enable-background:new 0 0 100 100;" xml:space="preserve">
<g>
	<path d="M97.35,49.56L97.35,49.56c-0.42-2.17-3.04-3.04-4.68-1.56l0,0c-0.09,0.08-9.44,8.49-19.34,11.79
		c-9.48,3.16-16.49,9.67-20.29,18.84c-2.09,5.05-2.66,9.58-2.81,11.72c0.19-0.23,0.39-0.46,0.59-0.68
		c7.32-8.46,15.62-14.27,24-16.82c1.5-0.46,3.08,0.39,3.53,1.88c0.45,1.5-0.39,3.08-1.88,3.53c-9.64,2.93-17.36,10.25-22.45,16.41
		c1.93,0.28,5.45,0.7,9.69,0.7c8.24,0,19.14-1.56,26.11-8.68C101.95,74.31,97.54,50.56,97.35,49.56L97.35,49.56z"/>
	<path d="M2.65,49.56L2.65,49.56c0.42-2.17,3.04-3.04,4.68-1.56l0,0c0.09,0.08,9.44,8.49,19.34,11.79
		c9.48,3.16,16.49,9.67,20.29,18.84c2.09,5.05,2.66,9.58,2.81,11.72c-0.19-0.23-0.39-0.46-0.59-0.68
		c-7.32-8.46-15.62-14.27-24-16.82c-1.5-0.46-3.08,0.39-3.53,1.88c-0.45,1.5,0.39,3.08,1.88,3.53c9.64,2.93,17.36,10.25,22.45,16.41
		c-1.93,0.28-5.45,0.7-9.69,0.7c-8.24,0-19.14-1.56-26.11-8.68C-1.95,74.31,2.46,50.56,2.65,49.56L2.65,49.56z"/>
	<g>
		<path d="M60.94,37.3c1.22,0.46,2.58-0.15,3.04-1.36L65,33.29h6.99l1,2.64c0.36,0.94,1.25,1.53,2.21,1.53
			c0.28,0,0.56-0.05,0.83-0.15c1.22-0.46,1.83-1.82,1.37-3.04l-6.32-16.74c-0.01-0.02-0.02-0.04-0.03-0.07
			c-0.42-1.03-1.42-1.7-2.54-1.7c0,0,0,0,0,0c-1.12,0-2.11,0.67-2.54,1.7c-0.01,0.02-0.01,0.04-0.02,0.05l-6.37,16.74
			C59.12,35.48,59.73,36.84,60.94,37.3L60.94,37.3z M68.51,24.07l1.7,4.5h-3.41L68.51,24.07z"/>
		<path d="M83,37.46c1.3,0,2.36-1.06,2.36-2.36v-9.38l7.16,10.37c0.68,0.99,1.83,1.41,2.91,1.07c1.11-0.35,1.82-1.38,1.82-2.63
			c0-0.01,0-0.02,0-0.02l-0.16-16.4c-0.01-1.29-1.07-2.33-2.36-2.33c-0.01,0-0.02,0-0.02,0c-1.3,0.01-2.35,1.08-2.33,2.38l0.09,9.58
			l-7.53-10.91c-0.59-0.85-1.66-1.22-2.64-0.91c-0.99,0.31-1.66,1.22-1.66,2.25V35.1C80.64,36.4,81.69,37.46,83,37.46L83,37.46z"/>
		<path d="M48.13,37.46c5.7,0,9.68-4.46,9.68-10.85c0-1.3-1.06-2.36-2.36-2.36h-5.08c-1.3,0-2.36,1.06-2.36,2.36
			c0,1.3,1.06,2.36,2.36,2.36h2.42c-0.57,2.07-1.99,3.77-4.67,3.77c-3.38,0-6.13-2.75-6.13-6.13s2.75-6.13,6.13-6.13
			c1.23,0,2.41,0.36,3.43,1.05c1.08,0.73,2.54,0.45,3.27-0.63c0.73-1.08,0.45-2.54-0.63-3.27c-1.79-1.21-3.89-1.85-6.07-1.85
			c-5.98,0-10.85,4.87-10.85,10.85S42.15,37.46,48.13,37.46L48.13,37.46z"/>
		<path d="M25.3,37.46h7.15c1.3,0,2.36-1.06,2.36-2.36s-1.06-2.36-2.36-2.36h-4.8v-3.77h4.27c1.3,0,2.36-1.06,2.36-2.36
			c0-1.3-1.06-2.36-2.36-2.36h-4.27v-3.77h4.8c1.3,0,2.36-1.06,2.36-2.36c0-1.3-1.06-2.36-2.36-2.36H25.3
			c-1.3,0-2.36,1.06-2.36,2.36V35.1C22.94,36.4,24,37.46,25.3,37.46z"/>
		<path d="M8.69,35.63c0.39,1.09,1.42,1.82,2.58,1.82h0.02c1.17-0.01,2.2-0.75,2.58-1.87l5.54-16.68c0.41-1.24-0.26-2.57-1.49-2.98
			c-1.24-0.41-2.57,0.26-2.98,1.49l-3.71,11.16l-3.9-11.23c-0.43-1.23-1.77-1.88-3-1.45c-1.23,0.43-1.88,1.77-1.45,3L8.69,35.63z"/>
	</g>
</g>
</svg>
