<?xml version="1.0" encoding="utf-8"?>
<!-- Generator: Adobe Illustrator 26.4.1, SVG Export Plug-In . SVG Version: 6.00 Build 0)  -->
<svg version="1.1" id="Capa_1" xmlns="http://www.w3.org/2000/svg" xmlns:xlink="http://www.w3.org/1999/xlink" x="0px" y="0px"
	 viewBox="0 0 100 100" style="enable-background:new 0 0 100 100;" xml:space="preserve">
<g>
	<path d="M52.61,30.65v20.12c18.72-17.16,13.98-35.23-2.73-48.76C33.1,15.63,28.46,33.69,47.14,50.79V30.65L52.61,30.65z"/>
	<path d="M33.39,58.02L47.1,71.73c-0.51-19.6-12.76-30.99-36.42-28.64c-1.92,18.78,4.88,36.7,30.66,36.46h0
		c2.27,0,4.19-0.15,5.51-0.29c0-0.02,0-0.03,0-0.05L29.52,61.89L33.39,58.02z"/>
	<path d="M70.23,61.89L52.9,79.22c0,0.02,0,0.03,0,0.05c29.53,2.97,38.41-15.49,36.17-36.17c-22.59-2.25-35.11,8.09-36.3,26.63
		c-0.05,0.68-0.09,1.35-0.12,2l13.71-13.71L70.23,61.89z"/>
	<path d="M52.61,79.5L52.61,79.5l0,0.3h-5.47v15.58h5.47L52.61,79.5z"/>
</g>
</svg>
