<?xml version="1.0" encoding="utf-8"?>
<!-- Generator: Adobe Illustrator 26.0.2, SVG Export Plug-In . SVG Version: 6.00 Build 0)  -->
<svg version="1.1" id="Capa_1" xmlns="http://www.w3.org/2000/svg" xmlns:xlink="http://www.w3.org/1999/xlink" x="0px" y="0px"
	 viewBox="0 0 1831 621.47" style="enable-background:new 0 0 1831 621.47;" xml:space="preserve">
<style type="text/css">
	.st0{fill:#325454;}
	.st1{fill:#41B9B9;}
</style>
<g>
	<g>
		<path class="st0" d="M1521.41,454.03c36.99-33.94,91.52-42.21,139.23-31.68c0.15,0.03,0.29,0.08,0.42,0.16
			c0.13,0.08,0.24,0.19,0.32,0.32c0.09,0.12,0.15,0.27,0.17,0.42c0.03,0.15,0.03,0.31,0,0.46c-0.07,0.29-0.23,0.54-0.47,0.71
			c-0.24,0.18-0.54,0.25-0.83,0.21c-11.82-1.86-23.79-2.61-35.75-2.23c-29.68,0.64-58.47,10.22-82.61,27.48
			c-4.63,3.33-8.92,7.11-12.82,11.27c-0.94,1.02-2.25,1.61-3.64,1.66c-1.38,0.04-2.73-0.46-3.74-1.41
			c-0.51-0.46-0.92-1.02-1.19-1.65c-0.58-1.27-0.64-2.72-0.15-4.02C1520.59,455.1,1520.95,454.52,1521.41,454.03z"/>
		<path class="st0" d="M1752.43,465.76c-21.76-4.57-72.43-17.68-92.47-43.81c-0.72-0.96-0.52-2.32,0.44-3.04
			c0.03-0.02,0.05-0.04,0.08-0.06c0.32-0.23,0.7-0.36,1.09-0.39c8.45-0.52,33.39,3.09,92.47,43.19c1.13,0.44,1.69,1.72,1.25,2.86
			C1754.84,465.65,1753.56,466.21,1752.43,465.76z"/>
		<path class="st1" d="M1783.94,415.21c-29.04,8.18-99.9,25.3-133.72,9.26c-0.84-0.47-1.36-1.36-1.34-2.32
			c-0.02-0.97,0.5-1.87,1.34-2.33c10.02-5.53,43.15-17.64,133.34-9.54c0.52,0.14,0.99,0.43,1.34,0.85c0.36,0.42,0.58,0.94,0.62,1.49
			c0.04,0.55-0.1,1.1-0.39,1.57C1784.86,414.64,1784.44,415,1783.94,415.21z"/>
	</g>
	<g>
		<path class="st1" d="M886.2,220.02c-9,17.89-32.3,58.62-60.36,63.86c-0.4,0.09-0.81,0.09-1.21,0c-0.39-0.12-0.74-0.32-1.05-0.59
			c-0.3-0.28-0.54-0.62-0.68-1.01c-0.14-0.39-0.18-0.8-0.13-1.21c0.89-7.95,8.48-30.22,59.61-64.39c0.47-0.35,1.05-0.52,1.64-0.48
			c0.59,0.03,1.14,0.26,1.58,0.64c0.44,0.38,0.74,0.9,0.83,1.48C886.55,218.91,886.47,219.5,886.2,220.02z"/>
		<g>
			<path class="st0" d="M1006.52,195.76c0-13.39,3.01-18.14,10.32-18.14c7.31,0,9.03,6.48,9.03,18.14
				c0,37.15,47.3,68.69,117.4,68.69c39.13-71.28,70.53-120.53,114.39-120.53c18.06,0,33.11,11.66,33.11,32.4
				c0,44.5-53.75,95.47-134.17,104.54c-15.05,30.24-31.82,57.89-31.82,57.89c31.39,19.44,49.45,46.22,49.45,76.9
				c0,6.91-5.16,12.96-11.18,12.96c-7.74,0-11.18-5.18-11.18-10.8c0-5.62,1.72-11.66,1.72-16.42c0-17.28-13.33-34.99-37.41-48.82
				c-40.85,65.23-86.87,107.14-148.36,107.14c-44.29,0-74.4-24.62-74.4-65.23c0-42.34,42.14-83.38,114.82-83.38
				c39.13,0,73.11,6.91,99.77,19.01c3.87-6.05,15.05-25.06,26.23-47.95C1060.28,282.16,1006.52,241.55,1006.52,195.76z
				 M911.49,394.48c0,30.24,19.35,47.95,56.33,47.95c50.31,0,95.9-43.2,131.59-98.5c-24.08-9.94-55.47-16.42-92.89-16.42
				C942.45,327.52,911.49,364.67,911.49,394.48z M1257.23,161.63c-29.24,0-56.76,41.47-89.88,99.79
				c63.22-11.66,104.07-50.98,104.07-81.65C1271.43,168.54,1266.26,161.63,1257.23,161.63z"/>
			<path class="st0" d="M1274,290.37c0,3.46,0,13.39,6.88,13.39c17.63,0,34.4-12.1,38.7-12.1s7.74,3.02,7.74,7.34
				s-5.59,9.5-19.78,15.98c-15.91,7.34-35.69,7.34-37.41,7.34c-9.03,25.92-28.81,60.05-58.91,60.05c-12.04,0-24.08-9.07-24.08-27.65
				c0-40.18,33.54-78.62,63.65-78.62C1266.69,276.11,1274,283.89,1274,290.37z M1205.2,354.74c0,7.78,5.16,12.53,10.75,12.53
				c16.77,0,38.7-38.88,38.7-51.84c0-1.3-6.45-3.46-6.45-9.07c0-4.32,1.29-7.78,1.29-9.5c0-0.86-0.43-1.3-1.29-1.3
				C1229.71,295.55,1205.2,326.66,1205.2,354.74z"/>
			<path class="st0" d="M1512.23,311.54c5.16-6.48,8.6-10.8,13.33-10.8c3.87,0,6.02,2.59,6.02,6.05c0,3.89-1.72,6.48-6.88,12.53
				c-13.33,17.28-49.02,61.34-71.82,61.34c-11.61,0-18.92-8.21-18.92-22.9c0-17.71,9.46-48.38,9.46-51.41c0-3.02-0.86-5.62-4.3-5.62
				c-13.76,0-49.02,46.22-55.47,63.07c-4.3,9.94-7.74,16.42-11.61,16.42c-4.3,0-10.75-5.62-10.75-10.37
				c0-5.18,19.35-54.43,19.35-67.39c0-3.46-2.15-6.91-6.88-6.91c-5.16,0-27.52,16.85-42.57,38.45
				c-7.74,10.8-15.05,25.92-19.78,35.86c-3.87,8.21-4.3,15.55-10.75,15.55c-3.87,0-9.03-3.89-9.03-9.5
				c0-6.05,19.35-57.46,32.68-98.93c3.01-9.5,7.74-14.26,11.18-14.26c5.16,0,10.32,1.73,10.32,8.21c0,7.34-12.47,36.29-14.19,42.34
				c13.33-18.58,36.12-35.86,47.73-35.86c7.74,0,20.64,4.32,20.64,15.55c0,10.37-3.01,22.03-3.44,25.92
				c14.19-19.87,37.41-36.72,51.17-36.72c6.88,0,15.48,6.05,15.48,15.12c0,9.07-11.61,39.74-11.61,56.59c0,6.05,1.29,9.5,6.45,9.5
				C1472.24,363.38,1496.75,332.27,1512.23,311.54z"/>
			<path class="st0" d="M1602.97,278.27c6.88,0,11.18,3.89,11.18,9.07c0,5.62-11.18,20.3-20.21,37.58
				c-5.16,9.5-7.74,18.14-7.74,24.62c0,5.62,1.72,10.37,5.59,10.37c15.48,0,41.28-27.65,57.19-48.38c4.73-6.48,8.6-10.8,12.9-10.8
				c4.3,0,6.02,2.59,6.02,6.05c0,3.89-1.72,6.48-6.45,12.53c-20.64,24.62-54.18,57.89-75.69,57.89c-13.33,0-20.21-9.5-20.21-20.3
				c0-4.75,0.86-10.8,0.86-14.69c0-2.59,0-3.89-0.86-3.89c-2.58,0-9.46,8.21-18.92,16.85c-20.21,17.71-33.54,26.35-43.43,26.35
				c-4.3,0-12.9-6.48-12.9-16.85c0-44.06,46.87-86.83,82.14-87.26c8.17,0,15.91,9.94,17.63,9.94
				C1593.5,287.34,1595.65,278.27,1602.97,278.27z M1510.08,355.6c0,2.59,1.72,5.18,5.16,5.18c7.31,0,63.22-48.82,63.22-56.16
				c0-2.16-7.31-0.86-7.31-5.62c0-2.59-1.29-5.18-4.73-5.18C1547.92,293.82,1510.08,334.43,1510.08,355.6z"/>
			<path class="st0" d="M1650.26,317.15c0-22.46,32.68-43.2,51.6-43.2c7.31,0,17.2,6.48,17.2,15.55c0,9.07-5.59,24.19-14.19,24.19
				c-4.73,0-9.03-2.59-9.03-7.34c0-7.34,6.45-8.64,6.45-10.37c0-2.59-3.01-5.62-6.45-5.62c-6.02,0-26.23,11.66-26.23,24.19
				c0,12.1,30.96,10.37,30.96,38.02c0,14.26-12.47,29.81-37.41,29.81c-15.05,0-26.66-10.8-26.66-21.17c0-6.05,4.3-10.8,9.46-10.8
				c3.87,0,7.74,2.16,7.74,6.48c0,7.34,3.87,11.66,12.04,11.66c9.03,0,15.05-7.34,15.05-15.98
				C1680.8,335.73,1650.26,336.59,1650.26,317.15z"/>
		</g>
		<path class="st0" d="M287.08,319.39c-27.03,5.65-58.94,14.93-86.8,29.9c-8.05,4.02-16.1,8.88-24.22,13.32
			c-1.25,8.56-1.79,17.21-1.61,25.86c0,3.64,0,9.24-5.23,9.24c-5.23,0-13.72-4.44-13.72-12.07c0-1.61,0.4-5.24,0.8-10.89
			c-35.14,23.37-58.56,47.6-58.56,69.07c0,17.37,16.1,24.25,32.7,24.25c65.38,0,158.28-83.63,158.28-135.34
			C288.81,328.22,288.26,323.73,287.08,319.39z M265.28,209.88c0,9.26-27.74,21.46-55.29,70.3c-14.94,26.25-23.82,46.46-28.66,63.04
			c4.84-2.82,10.07-5.24,15.41-8.05c26.67-13.32,57.33-22.62,83.96-29.09c-6.84-8.48-18.48-12.07-34.7-12.07
			c-7.27,0-14.51,2.04-19.79,2.04c-4.02,0-6.84-1.19-6.84-6.17c0-9.26,7.67-10.89,22.99-14.93c29.86-7.69,75.12-37.97,75.12-75.12
			c0-16.97-15.76-21.02-34.31-21.02c-72.65,0-182.43,72.72-182.43,113.53c0,3.64,3.25,6.88,3.25,10.92
			c-0.39,6.11-5.61,10.78-11.72,10.49c-6.44,0-10.48-3.64-10.48-12.93c-0.08-60.72,114.95-137.1,210.19-137.1
			c35.53,0,46.02,17.44,46.02,33.53c0,27.48-26.64,62.63-64.73,83.3c2,1.62,16.55,6.87,25.83,21.46c17.45-3.5,35.12-5.79,52.89-6.85
			c7.65,0,13.71,2.41,13.71,7.69s-4.44,8.05-15.41,8.05c-15.17,0.53-30.28,2.14-45.22,4.84c1.34,5.29,2.03,10.72,2.04,16.18
			c0,67.86-102.55,151.9-178.4,151.9c-29.86,0-46.41-19.01-46.41-38.38c0-32.73,34.3-63.86,78.72-90.92
			c7.27-27.25,17.99-53.45,31.9-77.99c32.27-58.6,54.5-76.75,61.34-76.75c5.7,0.11,10.43,4.45,11.03,10.13L265.28,209.88z"/>
		<path class="st0" d="M339.18,361.42c-0.02,0.64,0.08,1.28,0.31,1.88c0.24,0.6,0.59,1.14,1.05,1.6c0.92,0.91,2.18,1.39,3.47,1.34
			c6.84,0,59.34-45.61,59.34-52.45c0-2.01-6.88-0.8-6.88-5.24c0.24-1.92-0.83-3.77-2.62-4.51c-0.57-0.24-1.19-0.36-1.81-0.34
			C374.68,303.63,339.18,341.6,339.18,361.42z M426.37,289.06c6.48,0,10.52,3.65,10.52,8.49s-10.52,19.01-18.99,35.17
			c-4.2,6.99-6.68,14.87-7.24,23c0,5.24,1.61,9.72,5.24,9.72c14.51,0,38.74-25.89,53.65-45.26c4.44-6.17,8.05-10.11,12.07-10.11
			c0.76-0.09,1.53,0,2.25,0.25c1.47,0.52,2.63,1.68,3.14,3.15c0.25,0.73,0.34,1.5,0.24,2.27c0,3.64-1.6,6.17-6.16,11.68
			c-19.4,23.04-50.89,54.15-71.09,54.15c-7.79,0.39-14.94-4.27-17.73-11.55c-0.9-2.37-1.3-4.9-1.15-7.43
			c0-4.44,0.79-10.11,0.79-13.72c0-2.44,0-3.65-0.79-3.65c-2.44,0-8.88,7.69-17.76,15.73c-18.99,16.57-31.51,24.68-40.78,24.68
			c-4.02,0-12.07-6.17-12.07-15.73c0-41.21,44.01-81.22,77.06-81.62c7.63,0,14.92,9.26,16.55,9.26c3.34,0.05,5.38-8.49,12.22-8.49
			H426.37z"/>
		<path class="st0" d="M657.27,320.2c4.84-6.17,8.05-10.11,12.51-10.11c0.76-0.05,1.52,0.06,2.23,0.32
			c0.71,0.27,1.35,0.68,1.89,1.22c0.53,0.55,0.94,1.19,1.21,1.9c0.27,0.71,0.38,1.47,0.32,2.23c0,3.64-1.61,6.17-6.48,11.68
			c-12.51,16.18-46.02,57.36-67.42,57.36c-10.88,0-17.75-7.69-17.75-21.46c0-16.57,8.88-45.26,8.88-48.06c0-2.8-0.8-5.27-4.02-5.27
			c-12.92,0-46.02,43.18-52.07,59.02c-4.02,9.26-7.27,15.43-10.91,15.43c-3.64,0-10.07-5.24-10.07-9.68s18.15-50.97,18.15-63.04
			c0.04-0.86-0.1-1.73-0.4-2.54c-0.29-0.8-0.75-1.53-1.34-2.15c-0.62-0.59-1.35-1.05-2.15-1.34c-0.81-0.31-1.67-0.45-2.54-0.4
			c-4.83,0-25.82,15.76-40.07,35.98c-7.05,10.66-13.24,21.88-18.5,33.53c-3.59,7.67-4.02,14.53-10.07,14.53
			c-4.67-0.38-8.31-4.2-8.48-8.88c0-5.65,18.16-53.75,30.68-92.55c2.83-8.88,7.27-13.33,10.5-13.33c4.84,0,9.68,1.61,9.68,7.69
			c0,6.85-11.72,33.94-13.32,39.58c12.51-17.37,33.91-33.53,44.81-33.53c7.24,0,19.36,4.02,19.36,14.55
			c-0.41,8.14-1.44,16.24-3.09,24.22c13.32-18.51,35.12-34.34,48.03-34.34c7.81,0.19,14.15,6.36,14.54,14.16
			c0,8.48-10.91,37.02-10.91,52.9c0,5.67,1.19,8.88,6.16,8.88C619.72,368.7,642.71,339.66,657.27,320.2z"/>
		<path class="st0" d="M714.17,219.59c-10.68,20.79-19.72,42.39-27.03,64.6c47.22-33.13,77.06-93.32,77.06-109.48
			c0.14-0.84,0.08-1.71-0.17-2.52c-0.53-1.65-1.82-2.95-3.47-3.47c-0.81-0.26-1.68-0.32-2.52-0.17
			C751.71,168.69,732.76,183.22,714.17,219.59z M779.98,169.09c0,33.13-34.7,90.89-97.28,136.94c-3.64,4.88-8.48,24.25-8.48,29.51
			c0,0.83,0,1.64,0.4,1.64c2.4,0,4.44-2.84,7.24-6.17c18.5-23.02,42.82-45.23,65.4-45.23c9.68,0,16.1,7.66,16.1,18.51
			c0,33.94-31.07,78.39-60.13,78.39c-13.75,0-17.79-6.48-17.79-12.92c0.34-4.77,4.47-8.36,9.24-8.05c6.85,0,7.24,2.4,10.89,2.4
			c16.1,0,39.17-34.33,39.17-53.73c-0.05-1.84-0.85-3.58-2.23-4.82c-0.68-0.6-1.48-1.06-2.35-1.34c-0.87-0.28-1.78-0.38-2.68-0.3
			c-8.88,0-26.26,16.57-46.83,39.18c-8.05,8.49-17.44,22.64-17.44,29.09c0,6.45-8.05,13.32-12.07,13.32c-4.02,0-7.69-2-7.69-14.93
			c0-51.74,20.59-108.27,45.19-153.93s42.91-63.92,65.9-63.92c8.72,0.33,15.58,7.58,15.41,16.31V169.09z"/>
		<path class="st0" d="M871.22,357.37c5.24-5.27,9.24-10.52,13.72-10.52c0.73-0.04,1.46,0.08,2.15,0.35c0.68,0.28,1.29,0.7,1.8,1.23
			c0.49,0.55,0.87,1.19,1.1,1.89c0.22,0.7,0.29,1.44,0.19,2.17c0,3.23-0.8,6.17-6.16,11.32c-7.69,8.05-18.19,18.2-34.31,18.2
			c-14.55,0-19.79-11.32-19.79-21.05c0-4.44,0.8-8.05,0.8-10.88c-14.53,14.58-36.35,34.7-53.31,34.7c-2.23,0.16-4.47-0.15-6.57-0.91
			c-2.1-0.78-4.02-1.98-5.63-3.54c-1.6-1.57-2.85-3.46-3.66-5.55c-0.82-2.08-1.19-4.32-1.07-6.56c0-20.2,24.65-42.01,24.65-65.03
			c0-9.26,2.43-16.16,10.11-16.16s8.48,5.65,8.48,12.53c0,23.84-25.03,53.73-25.03,65.43c0,3.23,0.79,5.67,4.83,5.67
			c7.28,0,34.71-21.01,46.42-39.61c6.17-10.09,13.32-25.49,18.95-32.7c3.64-4.87,7.67-8.05,10.11-8.05c6.84,0,8.48,4.02,8.48,7.66
			c-0.96,3.39-2.61,6.54-4.84,9.26c-5.46,7.7-9.81,16.13-12.92,25.04c-2.5,6.89-3.86,14.14-4.02,21.46c0,8.49,3.09,13.33,7.24,13.33
			C859.91,367.05,866.37,361.81,871.22,357.37z"/>
		<path class="st1" d="M76.65,364.66c12.33-15.76,43.15-50.97,71.51-50.69c0.4,0.01,0.8,0.12,1.15,0.31
			c0.36,0.19,0.67,0.46,0.9,0.79c0.24,0.32,0.4,0.7,0.47,1.1c0.06,0.4,0.02,0.81-0.09,1.19c-2.43,7.66-14.23,27.95-70.89,51.31
			c-0.53,0.2-1.11,0.23-1.66,0.08c-0.53-0.17-1-0.49-1.34-0.94c-0.7-0.93-0.7-2.22,0-3.15H76.65z"/>
	</g>
</g>
</svg>
