<?xml version="1.0" encoding="utf-8"?>
<!-- Generator: Adobe Illustrator 26.0.2, SVG Export Plug-In . SVG Version: 6.00 Build 0)  -->
<svg version="1.1" id="Capa_1" xmlns="http://www.w3.org/2000/svg" xmlns:xlink="http://www.w3.org/1999/xlink" x="0px" y="0px"
	 viewBox="0 0 1831 621.5" style="enable-background:new 0 0 1831 621.5;" xml:space="preserve">
<style type="text/css">
	.st0{fill:#F5F5F5;}
</style>
<g>
	<g>
		<path class="st0" d="M1077.8,464.6c37-33.9,91.5-42.2,139.2-31.7c0.1,0,0.3,0.1,0.4,0.2c0.1,0.1,0.2,0.2,0.3,0.3
			c0.1,0.1,0.2,0.3,0.2,0.4c0,0.2,0,0.3,0,0.5c-0.1,0.3-0.2,0.5-0.5,0.7c-0.2,0.2-0.5,0.3-0.8,0.2c-11.8-1.9-23.8-2.6-35.7-2.2
			c-29.7,0.6-58.5,10.2-82.6,27.5c-4.6,3.3-8.9,7.1-12.8,11.3c-0.9,1-2.3,1.6-3.6,1.7c-1.4,0-2.7-0.5-3.7-1.4
			c-0.5-0.5-0.9-1-1.2-1.6c-0.6-1.3-0.6-2.7-0.1-4C1077,465.7,1077.3,465.1,1077.8,464.6z"/>
		<path class="st0" d="M760.6,478.4c-23.5-5.7-48.1-4.7-71.1,2.9c-13.9,4.8-26.6,12.4-37.5,22.4c-0.2,0.2-0.5,0.3-0.8,0.3
			c-0.3,0-0.6-0.1-0.8-0.3c-0.2-0.2-0.3-0.5-0.3-0.8c0-0.3,0.1-0.6,0.3-0.8c7-7.3,14.9-13.6,23.6-18.8c17.7-10.2,37.7-16,58.2-16.8
			c9-0.5,18-0.1,26.9,1.1c1.3,0.2,2.5,0.4,4,0.7c0.7,0.1,1.3,0.4,1.9,0.8c0.6,0.4,1,0.9,1.4,1.5c0.4,0.6,0.6,1.3,0.7,1.9
			c0.1,0.7,0.1,1.4-0.1,2.1c-0.3,1.4-1.2,2.5-2.4,3.2c-0.6,0.4-1.3,0.6-2,0.7c-0.7,0.1-1.4,0-2.1-0.1L760.6,478.4z"/>
		<path class="st0" d="M813.4,447.1c3.9-0.2,7.7,0.9,10.9,3.1c0.9,0.6,1.7,1.4,2.3,2.3c0.6,0.9,0.9,2,1.1,3.1c0,3.7-4.8,4.6-4.9,4.3
			c-1.9-3.2-5.3-5.2-9.1-5.1c-3,0-5.9,1.3-7.9,3.5c-1,1.1-1.8,2.4-2.2,3.8c-0.7,2.9-0.7,5.9,0,8.8c1.5,4.4,5.6,7.3,10.2,7.3
			c3.9,0.2,7.6-2,9.2-5.6c0-0.3,5.1,0.5,5.1,4.3c-0.1,1.1-0.5,2.3-1.2,3.2c-0.6,1-1.4,1.8-2.4,2.4c-3.3,2.3-7.2,3.5-11.2,3.3
			c-10.7-0.5-19-9.6-18.5-20.3c0.5-10,8.5-18,18.5-18.5H813.4z"/>
		<path class="st0" d="M872.7,466.5c0-7-4.4-11.9-10.7-11.9c-6.3,0-10.7,4.7-10.7,11.8c0,7.1,4.3,11.9,10.7,11.9
			S872.8,473.6,872.7,466.5L872.7,466.5z M842.8,466.5c0.1-10.6,8.8-19,19.4-18.9c10.6,0.1,19,8.8,18.9,19.4
			c-0.1,10.5-8.7,18.9-19.2,18.9c-10.2,0.3-18.8-7.7-19.1-17.9C842.8,467.5,842.8,467,842.8,466.5z"/>
		<path class="st0" d="M915.8,447.1c3.9-0.2,7.7,0.9,10.9,3.1c0.9,0.6,1.7,1.4,2.3,2.3c0.6,0.9,1,2,1.1,3.1c0,3.7-4.7,4.6-4.9,4.3
			c-0.9-1.6-2.3-2.9-3.9-3.8c-1.6-0.9-3.5-1.3-5.4-1.2c-3,0-5.9,1.3-7.9,3.5c-2,2.2-3,5.2-2.7,8.2c-0.1,1.5,0.1,3,0.6,4.4
			c0.5,1.4,1.3,2.7,2.3,3.8c1,1.1,2.3,2,3.6,2.6c1.4,0.6,2.8,0.9,4.3,0.9c3.9,0.3,7.6-2,9.3-5.6c0-0.3,5.1,0.5,5.1,4.3
			c-0.1,1.1-0.5,2.3-1.2,3.2c-0.6,1-1.4,1.8-2.4,2.4c-8.8,6-20.9,3.7-26.9-5.2c-0.2-0.3-0.4-0.6-0.6-0.9c-1.8-3-2.8-6.5-2.8-10
			c-0.1-2.6,0.3-5.1,1.2-7.5c1.9-4.9,5.7-8.7,10.5-10.6C910.7,447.4,913.3,447,915.8,447.1z"/>
		<path class="st0" d="M947.1,451.5c0-2.6,1.3-3.8,3.6-3.8h1.1c0.5-0.1,1,0,1.5,0.2c0.5,0.2,1,0.4,1.3,0.8c0.4,0.4,0.6,0.8,0.8,1.3
			c0.1,0.5,0.2,1,0.1,1.5v30c0.1,0.5,0,1-0.1,1.5c-0.5,1.5-2,2.5-3.6,2.3h-1.1c-2.3,0-3.6-1.3-3.6-3.8L947.1,451.5z"/>
		<path class="st0" d="M974.2,481.5v-29.6c0-2.7,1.3-4.2,3.7-4.2h1c0.9,0,1.7,0.2,2.5,0.6c0.8,0.4,1.4,1.1,1.8,1.8l16.1,22.1v-20.7
			c0-2.5,1.1-3.8,3.6-3.8h0.8c2.3,0,3.5,1.3,3.5,3.8v29.6c0,2.7-1.3,4.2-3.6,4.2h-0.7c-0.8,0.1-1.6-0.1-2.3-0.5
			c-0.7-0.4-1.3-1-1.7-1.7l-16.7-23v21.2c0.1,0.5,0,1-0.1,1.5c-0.2,0.5-0.4,1-0.8,1.3c-0.7,0.7-1.7,1.1-2.8,1h-0.8
			C975.4,485.3,974.2,484,974.2,481.5z"/>
		<path class="st0" d="M1045.6,469.3l-5.1-13.5l-5.1,13.5H1045.6z M1022.5,482.9l12.6-32.8c0.5-1.6,1.7-2.5,5.6-2.5s4.9,1,5.5,2.5
			l12.9,32.8c0.3,0.7-2.1,2.7-4.6,2.7c-2.3-0.1-4.4-1.7-4.9-4l-2.3-5.8h-13.5l-2.3,5.9c-1,2.9-2.8,3.9-4.6,3.9
			C1024.7,485.5,1022.3,483.7,1022.5,482.9z"/>
		<path class="st0" d="M723.5,541.1c0.3-1.8,1.4-3.4,3.1-4.2c2.8,3.1,6.8,5,11,5c4.4,0,6.8-1.6,6.8-4.5c0-3.3-3.7-4-8.1-5
			c-5.9-1.3-12.1-3.5-12.1-11.1c0-6.9,5.5-11.4,14.5-11.4c3.8-0.2,7.5,0.8,10.7,2.7c1.5,0.9,2.4,2.4,2.5,4.1c-0.2,2-1.5,3.7-3.3,4.4
			c-2.5-2.9-6.1-4.5-9.9-4.5c-4,0-6.4,1.7-6.4,4.3c0,3.2,3.3,3.7,7.9,4.7c6.7,1.5,12.6,4.3,12.6,11.3c0,7-5.5,11.8-15.2,11.8
			c-4.3,0.3-8.6-0.9-12.1-3.4c-0.7-0.5-1.2-1.1-1.6-1.8C723.6,542.7,723.5,541.9,723.5,541.1z"/>
		<path class="st0" d="M789.2,532l-4.9-13.5l-5.1,13.5H789.2z M766.1,545.6l12.6-32.8c0.5-1.6,1.7-2.5,5.6-2.5c3.9,0,4.9,1,5.4,2.5
			l13,32.8c0.3,0.7-2.1,2.6-4.6,2.6c-1.1,0-2.2-0.5-3.1-1.2c-0.9-0.7-1.5-1.7-1.8-2.8l-2.2-5.8h-13.5l-2.3,5.9
			c-1,3.1-2.8,3.9-4.6,3.9C768.1,548.2,765.8,546.4,766.1,545.6z"/>
		<path class="st0" d="M818.2,543.1v-28.9c0-2.6,1.3-3.8,3.5-3.8h1.2c2.5,0,3.7,1.3,3.7,3.8v26.1h13.9c2.6,0,3.9,1.2,3.9,3.6v0.2
			c0.2,1.1-0.2,2.2-1,2.9c-0.4,0.4-0.8,0.6-1.3,0.8c-0.5,0.1-1.1,0.1-1.6,0h-18c-1.2,0.1-2.4-0.4-3.2-1.3c-0.4-0.5-0.7-1-0.9-1.6
			C818.1,544.3,818.1,543.7,818.2,543.1z"/>
		<path class="st0" d="M858.5,514.2c-0.1-0.5,0-1,0.1-1.5c0.2-0.5,0.4-1,0.8-1.3c0.4-0.4,0.8-0.7,1.3-0.8c0.5-0.2,1-0.2,1.5-0.2h1.1
			c2.4,0,3.7,1.3,3.7,3.8v17.9c0,5.9,2.5,8.9,7.5,8.9c5,0,7.5-3.1,7.5-9v-17.8c-0.2-1.6,0.7-3.1,2.2-3.7c0.5-0.2,1-0.2,1.5-0.2h1.1
			c2.4,0,3.6,1.3,3.6,3.8v17.9c0,10.7-5.5,16.3-16,16.3s-15.9-5.5-15.9-16.3V514.2z"/>
		<path class="st0" d="M933.7,529.1c0-7.2-4.4-11.3-11.7-11.3h-5.2v22.7h5.1C929.1,540.6,933.7,536.4,933.7,529.1z M908.4,515.4
			c-0.1-0.6,0-1.2,0.2-1.8c0.2-0.6,0.5-1.1,0.9-1.6c0.4-0.4,0.9-0.8,1.5-1c0.6-0.2,1.2-0.3,1.8-0.3h9.4c12.3,0,19.9,6.9,19.9,18.5
			c0,11.6-7.7,18.8-20.2,18.8H913c-0.6,0-1.2-0.1-1.8-0.3c-1.2-0.5-2.1-1.4-2.6-2.5c-0.2-0.6-0.3-1.2-0.3-1.8L908.4,515.4z"/>
		<path class="st0" d="M978.2,532l-5.1-13.5l-5.1,13.5H978.2z M955.1,545.6l12.6-32.8c0.5-1.6,1.7-2.5,5.5-2.5c3.8,0,5,1,5.5,2.5
			l12.9,32.8c0.3,0.7-2.1,2.6-4.6,2.6c-1.1,0-2.3-0.4-3.1-1.2c-0.9-0.7-1.5-1.7-1.8-2.8l-2.2-5.8h-13.5l-2.3,5.9
			c-1,3.1-2.8,3.9-4.6,3.9C957.2,548.2,954.9,546.4,955.1,545.6L955.1,545.6z"/>
		<path class="st0" d="M1022.7,541.7c5.1,0,7.1-1.5,7.1-5.2c0-3.8-2.3-5-7.1-5h-7.3v10.3L1022.7,541.7z M1022.2,526.5
			c3.9,0,6.2-1.9,6.2-5c0-3.1-2.1-4.7-6.2-4.7h-6.8v9.7H1022.2z M1007,543.1v-27.8c-0.1-0.6,0-1.2,0.2-1.8c0.4-1.2,1.3-2.2,2.5-2.7
			c0.6-0.2,1.2-0.3,1.8-0.3h12.6c8.4,0,12.9,3.3,12.9,9.5c0.1,3.9-2.7,7.3-6.6,7.9c4.6,0.6,8.1,4.6,8,9.3c0,7.2-4.6,10.6-15.1,10.6
			h-11.9c-0.6,0-1.2-0.1-1.8-0.3c-0.6-0.2-1.1-0.6-1.5-1c-0.4-0.5-0.7-1-0.9-1.6C1007,544.3,1006.9,543.7,1007,543.1z"/>
		<path class="st0" d="M1055,543.1v-28.9c0-2.6,1.3-3.8,3.6-3.8h1.2c2.5,0,3.7,1.3,3.7,3.8v26.1h13.9c2.6,0,3.9,1.2,3.9,3.6v0.2
			c0,2.4-1.3,3.7-3.9,3.7h-17.9c-0.6,0.1-1.2,0-1.8-0.3c-0.6-0.2-1.1-0.6-1.5-1c-0.4-0.4-0.8-1-0.9-1.6
			C1055,544.4,1055,543.8,1055,543.1z"/>
		<path class="st0" d="M1097.3,543.1v-27.8c-0.1-0.6,0-1.2,0.2-1.8c0.2-0.6,0.5-1.1,0.9-1.6c0.4-0.5,0.9-0.8,1.5-1
			c0.6-0.2,1.2-0.3,1.8-0.3h20.7c2.6,0,3.9,1.1,3.9,3.4v0.3c0,2.3-1.3,3.4-3.9,3.4h-16.7v7.9h12.3c2.8,0,3.9,1.1,3.9,3.1
			c0,2.3-1.2,3.3-3.9,3.3h-12.3v8.7h16.9c2.7,0,3.9,1,3.9,3.1v0.3c0,2.3-1.2,3.5-3.9,3.5h-20.9c-0.6,0-1.2,0-1.7-0.3
			c-0.6-0.2-1.1-0.5-1.5-0.9c-0.4-0.4-0.7-0.9-1-1.5C1097.4,544.3,1097.3,543.7,1097.3,543.1z"/>
		<path class="st0" d="M1308.8,476.3c-21.8-4.6-72.4-17.7-92.5-43.8c-0.7-1-0.5-2.3,0.4-3c0,0,0.1,0,0.1-0.1
			c0.3-0.2,0.7-0.4,1.1-0.4c8.5-0.5,33.4,3.1,92.5,43.2c1.1,0.4,1.7,1.7,1.2,2.9S1309.9,476.8,1308.8,476.3z"/>
		<path class="st0" d="M1340.3,425.8c-29,8.2-99.9,25.3-133.7,9.3c-0.8-0.5-1.4-1.4-1.3-2.3c0-1,0.5-1.9,1.3-2.3
			c10-5.5,43.2-17.6,133.3-9.5c0.5,0.1,1,0.4,1.3,0.8c0.4,0.4,0.6,0.9,0.6,1.5c0,0.6-0.1,1.1-0.4,1.6
			C1341.2,425.2,1340.8,425.6,1340.3,425.8z"/>
		<path class="st0" d="M583.9,509.3c15.7-7.1,53.3-22.3,77.7-15.1c0.3,0.1,0.6,0.2,0.9,0.5c0.2,0.2,0.4,0.6,0.5,0.9
			c0.1,0.3,0,0.7-0.1,1c-0.1,0.3-0.4,0.6-0.6,0.8c-5,4.2-22.3,13.4-77.6,15.4c-0.5,0.1-0.9,0-1.3-0.2c-0.8-0.5-1.1-1.6-0.6-2.4
			c0,0,0,0,0,0C583,509.7,583.4,509.4,583.9,509.3z"/>
		<path class="st0" d="M587.5,555.4c14.4-18.5,50.7-61.7,79.2-67.2c0.4-0.1,0.7,0,1.1,0.1c0.7,0.2,1.2,0.9,1.3,1.6
			c0,0.4,0,0.7-0.2,1.1c-3.7,8-18.8,30.9-78.8,67.3c-0.4,0.2-0.9,0.3-1.3,0.3c-0.5-0.1-0.9-0.3-1.2-0.7c-0.3-0.4-0.5-0.8-0.5-1.3
			C587.1,556.2,587.2,555.7,587.5,555.4z"/>
	</g>
	<g>
		<path class="st0" d="M940.5,160.1c-9,17.9-32.3,58.6-60.4,63.9c-0.4,0.1-0.8,0.1-1.2,0c-0.4-0.1-0.7-0.3-1-0.6
			c-0.3-0.3-0.5-0.6-0.7-1c-0.1-0.4-0.2-0.8-0.1-1.2c0.9-8,8.5-30.2,59.6-64.4c0.5-0.3,1.1-0.5,1.6-0.5c0.6,0,1.1,0.3,1.6,0.6
			c0.4,0.4,0.7,0.9,0.8,1.5C940.9,159,940.8,159.6,940.5,160.1z"/>
		<g>
			<path class="st0" d="M1060.8,135.9c0-13.4,3-18.1,10.3-18.1c7.3,0,9,6.5,9,18.1c0,37.2,47.3,68.7,117.4,68.7
				C1236.7,133.3,1268.1,84,1312,84c18.1,0,33.1,11.7,33.1,32.4c0,44.5-53.8,95.5-134.2,104.5c-15.1,30.2-31.8,57.9-31.8,57.9
				c31.4,19.4,49.5,46.2,49.5,76.9c0,6.9-5.2,13-11.2,13c-7.7,0-11.2-5.2-11.2-10.8c0-5.6,1.7-11.7,1.7-16.4
				c0-17.3-13.3-35-37.4-48.8c-40.9,65.2-86.9,107.1-148.4,107.1c-44.3,0-74.4-24.6-74.4-65.2c0-42.3,42.1-83.4,114.8-83.4
				c39.1,0,73.1,6.9,99.8,19c3.9-6,15.1-25.1,26.2-48C1114.6,222.3,1060.8,181.6,1060.8,135.9z M965.8,334.6c0,30.2,19.4,48,56.3,48
				c50.3,0,95.9-43.2,131.6-98.5c-24.1-9.9-55.5-16.4-92.9-16.4C996.8,267.6,965.8,304.8,965.8,334.6z M1311.5,101.7
				c-29.2,0-56.8,41.5-89.9,99.8c63.2-11.7,104.1-51,104.1-81.6C1325.7,108.6,1320.6,101.7,1311.5,101.7z"/>
			<path class="st0" d="M1328.3,230.5c0,3.5,0,13.4,6.9,13.4c17.6,0,34.4-12.1,38.7-12.1c4.3,0,7.7,3,7.7,7.3s-5.6,9.5-19.8,16
				c-15.9,7.3-35.7,7.3-37.4,7.3c-9,25.9-28.8,60-58.9,60c-12,0-24.1-9.1-24.1-27.6c0-40.2,33.5-78.6,63.6-78.6
				C1321,216.2,1328.3,224,1328.3,230.5z M1259.5,294.8c0,7.8,5.2,12.5,10.8,12.5c16.8,0,38.7-38.9,38.7-51.8c0-1.3-6.5-3.5-6.5-9.1
				c0-4.3,1.3-7.8,1.3-9.5c0-0.9-0.4-1.3-1.3-1.3C1284,235.6,1259.5,266.8,1259.5,294.8z"/>
			<path class="st0" d="M1566.5,251.6c5.2-6.5,8.6-10.8,13.3-10.8c3.9,0,6,2.6,6,6c0,3.9-1.7,6.5-6.9,12.5
				c-13.3,17.3-49,61.3-71.8,61.3c-11.6,0-18.9-8.2-18.9-22.9c0-17.7,9.5-48.4,9.5-51.4c0-3-0.9-5.6-4.3-5.6
				c-13.8,0-49,46.2-55.5,63.1c-4.3,9.9-7.7,16.4-11.6,16.4c-4.3,0-10.8-5.6-10.8-10.4c0-5.2,19.4-54.4,19.4-67.4
				c0-3.5-2.2-6.9-6.9-6.9c-5.2,0-27.5,16.8-42.6,38.4c-7.7,10.8-15.1,25.9-19.8,35.9c-3.9,8.2-4.3,15.6-10.8,15.6
				c-3.9,0-9-3.9-9-9.5c0-6,19.4-57.5,32.7-98.9c3-9.5,7.7-14.3,11.2-14.3c5.2,0,10.3,1.7,10.3,8.2c0,7.3-12.5,36.3-14.2,42.3
				c13.3-18.6,36.1-35.9,47.7-35.9c7.7,0,20.6,4.3,20.6,15.6c0,10.4-3,22-3.4,25.9c14.2-19.9,37.4-36.7,51.2-36.7
				c6.9,0,15.5,6,15.5,15.1s-11.6,39.7-11.6,56.6c0,6,1.3,9.5,6.5,9.5C1526.5,303.5,1551.1,272.4,1566.5,251.6z"/>
			<path class="st0" d="M1657.3,218.4c6.9,0,11.2,3.9,11.2,9.1c0,5.6-11.2,20.3-20.2,37.6c-5.2,9.5-7.7,18.1-7.7,24.6
				c0,5.6,1.7,10.4,5.6,10.4c15.5,0,41.3-27.6,57.2-48.4c4.7-6.5,8.6-10.8,12.9-10.8c4.3,0,6,2.6,6,6c0,3.9-1.7,6.5-6.5,12.5
				c-20.6,24.6-54.2,57.9-75.7,57.9c-13.3,0-20.2-9.5-20.2-20.3c0-4.8,0.9-10.8,0.9-14.7c0-2.6,0-3.9-0.9-3.9
				c-2.6,0-9.5,8.2-18.9,16.8c-20.2,17.7-33.5,26.4-43.4,26.4c-4.3,0-12.9-6.5-12.9-16.8c0-44.1,46.9-86.8,82.1-87.3
				c8.2,0,15.9,9.9,17.6,9.9C1647.8,227.4,1650,218.4,1657.3,218.4z M1564.4,295.7c0,2.6,1.7,5.2,5.2,5.2c7.3,0,63.2-48.8,63.2-56.2
				c0-2.2-7.3-0.9-7.3-5.6c0-2.6-1.3-5.2-4.7-5.2C1602.2,233.9,1564.4,274.5,1564.4,295.7z"/>
			<path class="st0" d="M1704.6,257.2c0-22.5,32.7-43.2,51.6-43.2c7.3,0,17.2,6.5,17.2,15.6c0,9.1-5.6,24.2-14.2,24.2
				c-4.7,0-9-2.6-9-7.3c0-7.3,6.5-8.6,6.5-10.4c0-2.6-3-5.6-6.5-5.6c-6,0-26.2,11.7-26.2,24.2c0,12.1,31,10.4,31,38
				c0,14.3-12.5,29.8-37.4,29.8c-15.1,0-26.7-10.8-26.7-21.2c0-6,4.3-10.8,9.5-10.8c3.9,0,7.7,2.2,7.7,6.5c0,7.3,3.9,11.7,12,11.7
				c9,0,15.1-7.3,15.1-16C1735.1,275.8,1704.6,276.7,1704.6,257.2z"/>
		</g>
		<path class="st0" d="M341.4,259.5c-27,5.6-58.9,14.9-86.8,29.9c-8,4-16.1,8.9-24.2,13.3c-1.2,8.6-1.8,17.2-1.6,25.9
			c0,3.6,0,9.2-5.2,9.2c-5.2,0-13.7-4.4-13.7-12.1c0-1.6,0.4-5.2,0.8-10.9c-35.1,23.4-58.6,47.6-58.6,69.1
			c0,17.4,16.1,24.3,32.7,24.3c65.4,0,158.3-83.6,158.3-135.3C343.1,268.3,342.6,263.8,341.4,259.5z M319.6,150
			c0,9.3-27.7,21.5-55.3,70.3c-14.9,26.3-23.8,46.5-28.7,63c4.8-2.8,10.1-5.2,15.4-8c26.7-13.3,57.3-22.6,84-29.1
			c-6.8-8.5-18.5-12.1-34.7-12.1c-7.3,0-14.5,2-19.8,2c-4,0-6.8-1.2-6.8-6.2c0-9.3,7.7-10.9,23-14.9c29.9-7.7,75.1-38,75.1-75.1
			c0-17-15.8-21-34.3-21c-72.6,0-182.4,72.7-182.4,113.5c0,3.6,3.2,6.9,3.2,10.9c-0.4,6.1-5.6,10.8-11.7,10.5
			c-6.4,0-10.5-3.6-10.5-12.9c-0.1-60.7,115-137.1,210.2-137.1c35.5,0,46,17.4,46,33.5c0,27.5-26.6,62.6-64.7,83.3
			c2,1.6,16.6,6.9,25.8,21.5c17.5-3.5,35.1-5.8,52.9-6.9c7.6,0,13.7,2.4,13.7,7.7s-4.4,8-15.4,8c-15.2,0.5-30.3,2.1-45.2,4.8
			c1.3,5.3,2,10.7,2,16.2c0,67.9-102.5,151.9-178.4,151.9c-29.9,0-46.4-19-46.4-38.4c0-32.7,34.3-63.9,78.7-90.9
			c7.3-27.2,18-53.5,31.9-78c32.3-58.6,54.5-76.8,61.3-76.8C314.3,140,319,144.3,319.6,150L319.6,150z"/>
		<path class="st0" d="M393.5,301.5c0,0.6,0.1,1.3,0.3,1.9c0.2,0.6,0.6,1.1,1,1.6c0.9,0.9,2.2,1.4,3.5,1.3
			c6.8,0,59.3-45.6,59.3-52.4c0-2-6.9-0.8-6.9-5.2c0.2-1.9-0.8-3.8-2.6-4.5c-0.6-0.2-1.2-0.4-1.8-0.3
			C429,243.7,393.5,281.7,393.5,301.5z M480.7,229.2c6.5,0,10.5,3.6,10.5,8.5c0,4.8-10.5,19-19,35.2c-4.2,7-6.7,14.9-7.2,23
			c0,5.2,1.6,9.7,5.2,9.7c14.5,0,38.7-25.9,53.7-45.3c4.4-6.2,8-10.1,12.1-10.1c0.8-0.1,1.5,0,2.3,0.3c1.5,0.5,2.6,1.7,3.1,3.2
			c0.3,0.7,0.3,1.5,0.2,2.3c0,3.6-1.6,6.2-6.2,11.7c-19.4,23-50.9,54.2-71.1,54.2c-7.8,0.4-14.9-4.3-17.7-11.5
			c-0.9-2.4-1.3-4.9-1.2-7.4c0-4.4,0.8-10.1,0.8-13.7c0-2.4,0-3.6-0.8-3.6c-2.4,0-8.9,7.7-17.8,15.7c-19,16.6-31.5,24.7-40.8,24.7
			c-4,0-12.1-6.2-12.1-15.7c0-41.2,44-81.2,77.1-81.6c7.6,0,14.9,9.3,16.6,9.3C471.8,237.7,473.8,229.2,480.7,229.2L480.7,229.2z"/>
		<path class="st0" d="M711.6,260.3c4.8-6.2,8-10.1,12.5-10.1c0.8-0.1,1.5,0.1,2.2,0.3c0.7,0.3,1.4,0.7,1.9,1.2
			c0.5,0.5,0.9,1.2,1.2,1.9c0.3,0.7,0.4,1.5,0.3,2.2c0,3.6-1.6,6.2-6.5,11.7c-12.5,16.2-46,57.4-67.4,57.4
			c-10.9,0-17.7-7.7-17.7-21.5c0-16.6,8.9-45.3,8.9-48.1s-0.8-5.3-4-5.3c-12.9,0-46,43.2-52.1,59c-4,9.3-7.3,15.4-10.9,15.4
			s-10.1-5.2-10.1-9.7s18.1-51,18.1-63c0-0.9-0.1-1.7-0.4-2.5c-0.3-0.8-0.7-1.5-1.3-2.1c-0.6-0.6-1.3-1-2.1-1.3
			c-0.8-0.3-1.7-0.4-2.5-0.4c-4.8,0-25.8,15.8-40.1,36c-7.1,10.7-13.2,21.9-18.5,33.5c-3.6,7.7-4,14.5-10.1,14.5
			c-4.7-0.4-8.3-4.2-8.5-8.9c0-5.6,18.2-53.7,30.7-92.6c2.8-8.9,7.3-13.3,10.5-13.3c4.8,0,9.7,1.6,9.7,7.7
			c0,6.9-11.7,33.9-13.3,39.6c12.5-17.4,33.9-33.5,44.8-33.5c7.2,0,19.4,4,19.4,14.6c-0.4,8.1-1.4,16.2-3.1,24.2
			c13.3-18.5,35.1-34.3,48-34.3c7.8,0.2,14.1,6.4,14.5,14.2c0,8.5-10.9,37-10.9,52.9c0,5.7,1.2,8.9,6.2,8.9
			C674,308.8,697,279.8,711.6,260.3z"/>
		<path class="st0" d="M768.5,159.7c-10.7,20.8-19.7,42.4-27,64.6c47.2-33.1,77.1-93.3,77.1-109.5c0.1-0.8,0.1-1.7-0.2-2.5
			c-0.5-1.7-1.8-2.9-3.5-3.5c-0.8-0.3-1.7-0.3-2.5-0.2C806,108.8,787.1,123.3,768.5,159.7z M834.3,109.2
			c0,33.1-34.7,90.9-97.3,136.9c-3.6,4.9-8.5,24.3-8.5,29.5c0,0.8,0,1.6,0.4,1.6c2.4,0,4.4-2.8,7.2-6.2c18.5-23,42.8-45.2,65.4-45.2
			c9.7,0,16.1,7.7,16.1,18.5c0,33.9-31.1,78.4-60.1,78.4c-13.7,0-17.8-6.5-17.8-12.9c0.3-4.8,4.5-8.4,9.2-8c6.9,0,7.2,2.4,10.9,2.4
			c16.1,0,39.2-34.3,39.2-53.7c0-1.8-0.9-3.6-2.2-4.8c-0.7-0.6-1.5-1.1-2.3-1.3c-0.9-0.3-1.8-0.4-2.7-0.3
			c-8.9,0-26.3,16.6-46.8,39.2c-8,8.5-17.4,22.6-17.4,29.1s-8,13.3-12.1,13.3c-4,0-7.7-2-7.7-14.9c0-51.7,20.6-108.3,45.2-153.9
			c24.6-45.7,42.9-63.9,65.9-63.9C827.6,93.2,834.5,100.4,834.3,109.2L834.3,109.2z"/>
		<path class="st0" d="M925.5,297.5c5.2-5.3,9.2-10.5,13.7-10.5c0.7,0,1.5,0.1,2.1,0.3c0.7,0.3,1.3,0.7,1.8,1.2
			c0.5,0.5,0.9,1.2,1.1,1.9c0.2,0.7,0.3,1.4,0.2,2.2c0,3.2-0.8,6.2-6.2,11.3c-7.7,8-18.2,18.2-34.3,18.2c-14.6,0-19.8-11.3-19.8-21
			c0-4.4,0.8-8,0.8-10.9c-14.5,14.6-36.4,34.7-53.3,34.7c-2.2,0.2-4.5-0.1-6.6-0.9c-2.1-0.8-4-2-5.6-3.5c-1.6-1.6-2.8-3.5-3.7-5.6
			c-0.8-2.1-1.2-4.3-1.1-6.6c0-20.2,24.7-42,24.7-65c0-9.3,2.4-16.2,10.1-16.2c7.7,0,8.5,5.6,8.5,12.5c0,23.8-25,53.7-25,65.4
			c0,3.2,0.8,5.7,4.8,5.7c7.3,0,34.7-21,46.4-39.6c6.2-10.1,13.3-25.5,19-32.7c3.6-4.9,7.7-8,10.1-8c6.8,0,8.5,4,8.5,7.7
			c-1,3.4-2.6,6.5-4.8,9.3c-5.5,7.7-9.8,16.1-12.9,25c-2.5,6.9-3.9,14.1-4,21.5c0,8.5,3.1,13.3,7.2,13.3
			C914.2,307.1,920.7,301.9,925.5,297.5z"/>
		<path class="st0" d="M131,304.8c12.3-15.8,43.2-51,71.5-50.7c0.4,0,0.8,0.1,1.2,0.3c0.4,0.2,0.7,0.5,0.9,0.8
			c0.2,0.3,0.4,0.7,0.5,1.1c0.1,0.4,0,0.8-0.1,1.2c-2.4,7.7-14.2,28-70.9,51.3c-0.5,0.2-1.1,0.2-1.7,0.1c-0.5-0.2-1-0.5-1.3-0.9
			C130.3,307,130.3,305.7,131,304.8L131,304.8z"/>
	</g>
</g>
</svg>
