<?xml version="1.0" standalone="no"?>
<!DOCTYPE svg PUBLIC "-//W3C//DTD SVG 20010904//EN"
 "http://www.w3.org/TR/2001/REC-SVG-20010904/DTD/svg10.dtd">
<svg version="1.0" xmlns="http://www.w3.org/2000/svg"
 width="1800.000000pt" height="1800.000000pt" viewBox="0 0 1800.000000 1800.000000"
 preserveAspectRatio="xMidYMid meet">

<g transform="translate(0.000000,1800.000000) scale(0.100000,-0.100000)"
fill="#000000" stroke="none">
<path d="M13861 15279 c-339 -66 -621 -349 -992 -996 -357 -622 -656 -1355
-804 -1972 -17 -70 -26 -85 -138 -230 -425 -552 -696 -804 -868 -805 -98 -1
-126 50 -116 209 9 130 29 225 115 550 66 251 76 301 77 375 0 93 -10 121 -68
186 -71 82 -200 106 -330 63 -196 -66 -464 -261 -639 -466 -108 -127 -121
-141 -114 -121 13 42 46 317 48 396 1 72 -2 94 -20 128 -44 86 -145 145 -283
167 -61 9 -74 8 -151 -16 -188 -59 -460 -267 -655 -500 -40 -48 -73 -84 -73
-80 0 5 35 100 79 213 94 244 150 417 158 480 8 66 -18 117 -71 141 -54 25
-122 24 -163 -1 -66 -40 -98 -110 -218 -464 -124 -370 -107 -337 -276 -541
-116 -141 -418 -439 -517 -510 -147 -107 -290 -168 -355 -151 -14 3 -36 21
-49 39 -21 29 -23 43 -23 137 0 70 6 129 19 178 24 97 118 283 261 522 162
270 195 335 195 389 0 89 -74 151 -179 151 -68 0 -98 -17 -162 -90 -30 -35
-60 -60 -72 -60 -10 0 -53 28 -96 62 -105 85 -148 103 -241 102 -142 -1 -350
-65 -511 -157 l-76 -43 -29 23 c-17 12 -59 30 -94 39 -58 15 -82 16 -230 5
-91 -7 -237 -21 -325 -32 -149 -18 -489 -73 -527 -85 -11 -3 -26 9 -49 43 -76
110 -211 223 -382 317 l-68 38 73 42 c265 152 545 384 730 605 204 245 334
493 383 731 25 124 17 291 -19 384 -138 359 -569 481 -1326 375 -1238 -173
-2583 -937 -3154 -1792 -158 -238 -247 -490 -248 -707 -1 -154 33 -218 129
-246 100 -29 200 9 250 93 35 60 35 117 0 200 -44 102 -32 210 38 358 154 323
586 738 1126 1080 494 313 1056 563 1530 679 463 114 915 120 1119 16 61 -31
128 -97 158 -155 26 -47 27 -57 26 -185 -1 -117 -4 -147 -28 -224 -115 -380
-479 -753 -976 -1000 -151 -74 -275 -120 -495 -181 -258 -71 -315 -117 -315
-250 0 -45 4 -60 23 -79 36 -36 86 -39 247 -16 366 51 651 -1 812 -149 29 -27
51 -51 48 -53 -3 -3 -79 -24 -170 -47 -380 -98 -797 -237 -1101 -366 -74 -31
-232 -106 -352 -166 -250 -126 -232 -132 -165 56 80 224 204 497 342 755 315
585 496 831 921 1255 127 126 218 225 229 248 47 102 -56 237 -182 239 -183 2
-582 -459 -984 -1138 -352 -593 -564 -1068 -723 -1614 -20 -68 -41 -128 -48
-131 -43 -25 -320 -207 -404 -267 -689 -489 -1041 -960 -1045 -1402 -2 -123
16 -202 67 -305 95 -193 271 -327 513 -393 89 -24 113 -26 297 -26 148 -1 229
4 310 18 120 19 375 82 469 115 33 12 64 21 71 21 6 0 27 -21 45 -47 49 -69
212 -235 300 -306 412 -333 1018 -540 1652 -564 87 -3 158 -10 158 -15 0 -31
-428 -820 -476 -877 -2 -2 -61 19 -131 47 -509 200 -1044 294 -1683 296 -300
1 -401 -7 -636 -50 -920 -167 -1547 -777 -1545 -1504 1 -613 366 -1041 998
-1169 499 -102 1090 3 1570 280 521 300 971 761 1449 1484 65 99 120 182 122
185 5 7 86 -41 186 -111 117 -83 290 -250 354 -342 137 -200 179 -360 148
-570 -32 -217 -15 -306 70 -354 115 -66 243 -22 300 102 29 61 32 168 9 315
-68 452 -343 844 -817 1168 l-85 57 82 140 c124 212 270 476 395 715 62 118
114 216 115 218 2 2 49 10 106 18 227 31 438 80 669 156 915 299 1589 930
1705 1595 58 331 -51 592 -296 712 -144 70 -291 87 -480 55 -581 -100 -1073
-639 -1834 -2011 l-117 -213 -113 0 c-136 0 -378 22 -540 50 -539 92 -982 299
-1253 585 -45 48 -82 90 -82 94 0 3 30 22 68 40 481 236 1013 641 1361 1037
426 484 653 952 678 1394 5 95 -14 294 -33 344 -6 15 -4 15 201 46 201 30 615
64 615 51 0 -4 -25 -31 -56 -61 -124 -122 -264 -318 -339 -475 -111 -233 -162
-511 -120 -652 19 -65 74 -136 131 -169 40 -24 53 -26 112 -22 183 13 487 221
882 604 69 66 136 127 149 133 42 23 45 6 31 -182 -12 -168 -12 -178 8 -243
44 -144 146 -227 296 -241 202 -19 517 155 856 472 36 33 73 67 82 74 12 9 0
-37 -43 -166 -94 -280 -112 -355 -99 -400 22 -71 86 -123 154 -123 57 0 94 43
141 165 91 234 313 634 451 813 198 255 557 564 673 579 48 7 95 -17 117 -59
34 -67 -8 -244 -196 -813 -143 -434 -144 -437 -94 -502 36 -47 110 -93 150
-93 26 0 40 9 71 44 40 45 45 54 156 286 125 260 395 621 638 855 139 134 236
195 308 195 83 0 89 -58 32 -288 -153 -612 -158 -857 -21 -1006 59 -64 125
-90 230 -90 73 0 96 5 164 32 104 43 247 137 377 249 103 89 327 314 404 406
21 26 42 47 45 47 3 0 3 -26 -2 -57 -4 -32 -10 -160 -14 -285 -6 -200 -5 -236
11 -293 35 -131 127 -153 242 -59 59 48 93 111 108 199 24 139 151 344 344
555 431 473 720 710 864 710 42 0 89 -33 108 -76 17 -37 18 -51 8 -119 -15
-108 -42 -192 -104 -320 -96 -200 -243 -395 -374 -498 -133 -104 -215 -126
-328 -88 -117 40 -214 22 -260 -48 -43 -63 -39 -139 10 -212 67 -100 287 -137
467 -78 145 47 263 122 399 254 158 152 274 316 377 530 99 206 152 400 161
591 5 95 3 122 -16 182 -26 88 -87 159 -163 192 -46 20 -64 22 -158 18 -203
-9 -412 -106 -665 -309 -118 -94 -333 -313 -473 -481 -113 -137 -158 -175
-179 -155 -15 15 41 281 88 418 44 129 59 148 181 241 378 286 793 698 1073
1063 113 147 274 392 354 540 207 380 311 775 255 965 -22 75 -109 162 -184
184 -57 17 -148 19 -219 5z m96 -314 c36 -36 36 -36 29 -103 -11 -127 -74
-301 -191 -534 -285 -568 -727 -1104 -1197 -1453 -21 -15 -38 -22 -38 -16 0
17 105 309 170 470 172 431 383 851 560 1116 214 319 468 555 599 555 25 0 42
-9 68 -35z m-6843 -2506 c19 -15 26 -30 26 -55 0 -42 27 -71 74 -79 96 -18 73
-58 -174 -306 -255 -256 -525 -486 -738 -630 -114 -77 -149 -85 -197 -47 -26
21 -27 24 -23 97 11 175 160 428 398 675 267 276 535 423 634 345z m-2001
-291 c22 -87 29 -214 18 -314 -45 -398 -314 -848 -790 -1324 -245 -244 -495
-446 -781 -628 -118 -75 -325 -192 -340 -192 -20 0 -50 171 -50 285 0 157 -32
264 -89 298 -37 22 -122 22 -167 1 -45 -21 -72 -67 -90 -156 -31 -143 -2 -411
60 -559 8 -18 -43 -40 -199 -84 -177 -51 -307 -69 -485 -68 -182 0 -263 15
-377 70 -84 40 -184 142 -213 218 -34 85 -34 229 -2 335 29 93 95 218 170 325
78 110 339 369 502 499 123 98 356 266 380 274 6 2 8 -40 4 -115 -6 -107 -5
-122 14 -159 28 -55 79 -98 147 -123 63 -24 93 -26 128 -10 43 20 50 51 58
279 7 189 21 355 31 365 16 15 442 245 583 315 383 188 825 340 1325 455 80
19 148 34 151 34 4 1 9 -9 12 -21z m2473 -1582 c109 -51 149 -138 148 -326 0
-114 -3 -133 -33 -220 -64 -189 -165 -343 -341 -521 -63 -64 -146 -141 -185
-171 -291 -228 -674 -417 -1061 -523 -158 -43 -304 -75 -304 -66 0 10 277 483
375 641 383 616 703 982 987 1131 152 78 316 101 414 55z m-4206 -3090 c342
-38 687 -112 964 -206 81 -28 159 -56 172 -63 l24 -12 -81 -120 c-643 -951
-1323 -1518 -2000 -1669 -303 -67 -652 -51 -895 43 -320 124 -498 375 -520
737 -19 299 103 583 355 827 271 261 621 413 1091 473 142 18 690 12 890 -10z"/>
<path d="M14495 12776 c-77 -35 -104 -98 -116 -270 -15 -213 -57 -330 -222
-623 -182 -324 -225 -430 -234 -574 -8 -119 12 -175 86 -249 90 -90 190 -110
346 -70 198 51 444 217 735 496 72 70 132 125 134 123 1 -2 -2 -49 -7 -104
-17 -166 13 -282 95 -371 156 -169 473 -141 729 64 106 85 245 232 269 283 40
90 18 179 -50 194 -57 13 -98 -12 -231 -141 -136 -132 -210 -185 -295 -215
-78 -28 -117 -25 -158 11 -50 44 -69 109 -68 235 2 250 107 542 295 823 90
133 112 186 102 238 -13 71 -93 117 -174 99 -57 -12 -159 -121 -241 -255 -18
-30 -85 -149 -148 -265 -131 -239 -164 -291 -266 -413 -198 -235 -543 -508
-701 -553 -37 -11 -91 5 -105 31 -18 33 -11 117 15 187 14 38 79 169 145 293
225 426 290 607 290 809 0 165 -34 222 -137 228 -35 2 -70 -2 -88 -11z"/>
<path d="M8885 8712 c-75 -47 -120 -129 -196 -359 -29 -90 -58 -163 -63 -163
-5 0 -75 -30 -155 -66 -183 -84 -276 -118 -374 -138 -87 -18 -209 -21 -238 -6
-36 20 -60 86 -68 191 -7 84 -12 105 -37 145 -56 91 -181 150 -341 161 -520
37 -1091 -533 -1218 -1217 -25 -133 -26 -335 -1 -415 70 -232 253 -362 481
-341 402 37 760 397 1000 1006 l42 105 104 8 c228 16 446 67 596 137 46 21 83
37 83 34 0 -2 -65 -193 -145 -424 -179 -518 -235 -698 -235 -752 0 -122 153
-215 237 -144 30 25 43 51 113 221 86 208 281 564 393 720 203 282 512 577
709 676 66 33 87 35 134 13 109 -52 85 -201 -140 -881 -69 -208 -132 -405
-141 -438 -15 -59 -15 -60 10 -111 39 -79 135 -142 196 -129 47 11 88 70 184
270 51 105 120 236 155 291 242 385 622 805 805 890 98 46 165 21 165 -63 0
-22 -25 -143 -55 -269 -79 -333 -106 -488 -112 -644 -8 -191 19 -294 97 -384
65 -74 199 -116 304 -97 163 30 380 163 589 360 l57 54 0 -95 c0 -108 15 -161
64 -228 44 -60 105 -101 160 -107 187 -22 523 198 994 650 91 87 161 147 173
147 19 0 19 -7 17 -227 l-3 -228 28 -61 c78 -168 265 -241 471 -185 146 40
328 146 532 309 142 113 361 319 494 464 l114 125 57 -46 c32 -25 111 -77 176
-114 146 -84 206 -134 240 -200 22 -44 25 -60 21 -122 -11 -159 -111 -263
-264 -273 -61 -4 -80 -1 -126 20 -71 33 -98 75 -108 169 -10 90 -32 119 -104
140 -82 23 -176 -35 -206 -126 -17 -52 -8 -141 20 -200 35 -73 131 -165 213
-204 98 -47 192 -64 308 -57 205 13 359 75 479 196 82 81 119 145 146 252 30
114 4 275 -59 375 -40 63 -147 154 -246 208 -132 73 -212 126 -235 158 -45 61
-17 173 70 279 92 113 281 229 386 236 55 4 59 3 93 -31 19 -19 35 -43 35 -53
0 -10 -22 -39 -49 -65 -104 -99 -87 -234 35 -268 56 -16 82 -14 131 10 139 67
239 384 169 534 -28 61 -90 118 -165 154 -49 23 -68 26 -151 25 -82 0 -110 -6
-202 -37 -58 -20 -135 -50 -170 -68 -217 -108 -422 -298 -511 -474 -32 -64
-216 -293 -377 -470 -217 -240 -423 -413 -585 -492 -148 -71 -220 -69 -262 10
-27 50 -24 208 6 316 32 114 142 331 310 611 175 291 197 345 170 417 -24 64
-107 113 -193 113 -52 0 -113 -38 -162 -101 -57 -72 -75 -79 -117 -45 -167
138 -213 160 -318 158 -398 -7 -903 -334 -1219 -787 -97 -139 -262 -335 -410
-488 -211 -218 -357 -317 -468 -317 -101 0 -122 31 -122 183 0 113 23 257 69
437 16 63 54 213 85 332 31 120 56 239 56 266 0 136 -98 253 -238 283 -79 16
-181 -7 -318 -75 -223 -111 -478 -328 -641 -546 -20 -27 -38 -48 -39 -47 -2 2
8 61 22 132 13 72 27 189 31 262 6 129 5 133 -21 187 -62 126 -266 208 -425
170 -162 -37 -389 -190 -601 -403 -58 -58 -127 -134 -154 -169 -27 -34 -51
-61 -53 -59 -2 2 42 123 96 268 183 484 192 558 83 622 -48 28 -130 33 -167 9z
m4403 -582 c12 -11 24 -33 27 -48 15 -71 19 -76 77 -97 31 -11 59 -23 63 -27
3 -3 -2 -23 -13 -45 -75 -147 -674 -698 -1004 -924 -141 -96 -180 -105 -230
-52 -19 21 -23 34 -21 84 11 376 700 1124 1039 1128 27 1 47 -6 62 -19z
m-5965 -60 c-1 -25 -4 -83 -5 -128 l-3 -84 59 -55 59 -55 -12 -65 c-40 -215
-254 -582 -445 -761 -190 -178 -364 -185 -442 -17 -58 123 -9 398 111 637 164
326 456 583 650 574 29 -1 30 -2 28 -46z"/>
<path d="M13860 5713 c-639 -48 -1226 -278 -1612 -632 -53 -49 -58 -57 -58
-96 0 -57 36 -95 91 -95 35 0 48 9 134 88 305 285 768 513 1225 605 218 44
315 52 637 52 293 -1 302 0 307 19 3 11 4 21 3 23 -6 6 -153 24 -271 33 -120
9 -352 11 -456 3z"/>
<path d="M14960 5471 c19 -17 87 -66 150 -109 238 -161 562 -303 956 -417 164
-48 436 -115 466 -115 21 0 40 33 32 54 -13 34 -582 389 -837 521 l-142 74
-285 5 c-157 3 -305 8 -330 12 l-45 6 35 -31z"/>
<path d="M7230 5366 c-115 -26 -201 -94 -250 -197 -86 -183 -16 -386 166 -476
68 -33 83 -37 154 -37 68 0 87 5 144 33 36 17 75 44 86 58 44 56 38 115 -15
140 l-34 16 -44 -46 c-50 -51 -86 -63 -167 -55 -59 6 -109 37 -144 92 -22 34
-26 51 -26 119 0 94 21 141 83 184 59 41 150 45 211 9 25 -15 50 -35 56 -46
23 -44 100 -3 100 53 0 54 -34 95 -103 127 -76 35 -144 43 -217 26z"/>
<path d="M9123 5369 c-109 -21 -203 -92 -250 -188 -25 -50 -28 -67 -28 -156 0
-93 2 -105 33 -167 62 -127 178 -200 318 -201 123 -1 238 60 264 139 11 32 10
39 -7 63 -11 14 -32 30 -47 36 -24 8 -30 5 -57 -28 -41 -50 -77 -67 -144 -67
-124 0 -205 85 -205 215 0 127 82 215 199 215 64 0 98 -13 142 -56 29 -29 41
-34 63 -28 32 8 56 39 56 74 0 65 -83 129 -194 149 -67 12 -83 12 -143 0z"/>
<path d="M8120 5356 c-112 -25 -197 -92 -247 -194 -25 -51 -28 -68 -28 -157 0
-89 3 -106 28 -156 103 -211 384 -260 560 -99 79 72 112 149 112 260 0 73 -4
94 -29 148 -69 149 -239 234 -396 198z m178 -153 c60 -34 92 -100 92 -191 0
-86 -28 -145 -87 -186 -37 -26 -52 -30 -108 -30 -56 0 -71 4 -108 30 -60 42
-87 100 -87 189 0 85 23 141 72 178 66 51 149 54 226 10z"/>
<path d="M9825 5363 c-44 -11 -45 -21 -45 -348 0 -238 3 -315 13 -329 7 -9 31
-20 54 -23 35 -5 45 -2 67 20 l26 26 0 304 c0 276 -2 307 -17 326 -19 22 -64
33 -98 24z"/>
<path d="M10330 5361 c-48 -13 -50 -33 -48 -358 3 -342 2 -338 79 -338 67 0
69 8 69 249 l1 211 22 -26 c12 -14 87 -115 165 -223 151 -207 170 -225 227
-209 52 15 55 31 55 354 0 275 -1 298 -19 320 -13 16 -29 23 -55 23 -68 0 -70
-9 -76 -242 l-5 -207 -158 217 c-86 120 -161 219 -165 221 -17 10 -69 15 -92
8z"/>
<path d="M11464 5359 c-25 -7 -36 -19 -49 -52 -18 -44 -169 -435 -211 -545
l-23 -63 32 -19 c67 -41 112 -15 153 90 l27 70 128 0 127 0 27 -70 c39 -103
86 -131 157 -94 23 12 29 21 26 38 -2 12 -58 158 -124 325 -113 289 -121 305
-151 317 -36 16 -73 17 -119 3z m105 -274 c22 -61 41 -114 41 -118 0 -9 -180
-9 -180 1 -1 19 86 240 91 234 4 -4 25 -57 48 -117z"/>
<path d="M5765 5014 c-423 -26 -811 -148 -1144 -357 -57 -36 -61 -41 -42 -48
11 -5 21 -15 21 -24 0 -8 3 -15 7 -15 3 0 58 26 122 59 146 74 278 123 430
160 218 54 323 65 581 65 236 0 350 -10 518 -49 84 -20 104 -19 135 5 52 41
43 130 -15 158 -62 29 -433 57 -613 46z"/>
<path d="M3945 4514 c-217 -34 -537 -130 -799 -241 -143 -60 -175 -84 -145
-106 29 -22 499 10 777 52 l119 19 78 62 c95 75 199 146 286 194 l64 36 -145
-1 c-80 -1 -185 -8 -235 -15z"/>
<path d="M5803 4196 c-99 -24 -159 -86 -170 -173 -10 -85 26 -157 95 -192 21
-10 82 -31 137 -45 110 -30 135 -46 135 -88 0 -42 -15 -64 -51 -77 -71 -24
-150 -9 -230 45 l-52 35 -24 -22 c-16 -16 -23 -34 -23 -60 0 -75 107 -129 255
-129 182 0 284 76 285 213 0 113 -63 169 -240 212 -92 22 -127 39 -135 66 -19
58 28 99 115 99 57 0 108 -18 158 -56 31 -25 34 -25 52 -9 31 28 40 69 24 100
-20 39 -39 52 -113 75 -71 22 -141 24 -218 6z"/>
<path d="M6682 4190 c-28 -12 -31 -20 -167 -373 -84 -219 -104 -281 -95 -292
19 -22 74 -37 101 -26 33 12 42 24 74 109 l28 73 126 -3 126 -3 25 -67 c30
-78 51 -104 88 -111 29 -5 85 13 96 32 4 6 -50 156 -119 332 -139 351 -132
340 -218 338 -23 0 -52 -4 -65 -9z m114 -275 l41 -115 -88 0 c-49 0 -89 3 -89
8 0 17 84 232 89 227 3 -3 24 -57 47 -120z"/>
<path d="M7400 4180 c-19 -19 -20 -33 -20 -329 l0 -310 26 -20 c25 -20 40 -21
223 -21 227 0 236 2 236 70 0 65 -14 70 -181 70 l-143 0 -3 261 c-3 260 -3
261 -27 280 -31 25 -85 25 -111 -1z"/>
<path d="M8150 4180 c-19 -19 -20 -33 -20 -234 0 -186 3 -222 20 -279 38 -124
142 -184 301 -175 91 5 176 42 213 91 49 65 56 110 56 357 0 225 0 229 -22
244 -28 20 -77 20 -105 1 -21 -15 -22 -23 -25 -238 -3 -245 -9 -272 -68 -302
-43 -22 -122 -20 -154 6 -52 41 -56 61 -56 283 0 130 -4 214 -11 230 -19 40
-95 50 -129 16z"/>
<path d="M10205 4190 c-12 -4 -25 -14 -31 -21 -21 -28 -245 -629 -239 -640 4
-6 23 -17 41 -25 29 -12 39 -12 68 0 29 12 38 24 63 92 l30 79 128 0 127 0 24
-65 c27 -71 47 -98 83 -111 27 -11 82 4 100 25 9 10 -20 92 -115 334 -120 302
-129 322 -157 332 -35 12 -93 12 -122 0z m105 -265 c23 -64 40 -118 38 -121
-3 -3 -44 -4 -91 -2 l-85 3 39 105 c22 58 41 111 44 118 2 6 6 12 8 12 2 0 23
-52 47 -115z"/>
<path d="M11810 4180 c-19 -19 -20 -33 -20 -325 l0 -306 25 -24 c24 -25 25
-25 220 -25 l196 0 26 26 c20 20 24 31 19 57 -10 52 -25 57 -182 57 l-143 0
-3 261 c-3 260 -3 261 -27 280 -31 25 -85 25 -111 -1z"/>
<path d="M9082 4167 c-22 -23 -22 -29 -22 -321 l0 -297 26 -25 25 -26 157 4
c123 3 167 8 202 23 144 59 210 160 212 320 2 109 -24 178 -92 247 -81 80
-142 98 -339 98 -141 0 -148 -1 -169 -23z m305 -118 c174 -44 195 -306 32
-389 -29 -15 -59 -20 -124 -20 l-85 0 0 210 0 210 66 0 c36 0 86 -5 111 -11z"/>
<path d="M10915 4170 c-19 -21 -20 -38 -20 -322 l0 -300 29 -25 30 -25 180 4
c189 5 226 12 283 54 93 70 76 243 -29 292 -42 19 -47 28 -20 36 10 4 31 20
47 36 23 24 29 41 32 87 5 74 -18 119 -78 153 -42 24 -52 25 -239 28 -190 3
-196 3 -215 -18z m324 -101 c37 -13 51 -35 51 -82 0 -27 -7 -41 -31 -61 -28
-24 -38 -26 -120 -26 l-89 0 0 90 0 90 79 0 c43 0 92 -5 110 -11z m6 -269 c66
-15 93 -70 64 -134 -16 -34 -47 -43 -161 -50 l-98 -6 0 100 0 100 78 0 c42 0
95 -5 117 -10z"/>
<path d="M12601 4171 c-30 -30 -33 -63 -29 -354 3 -269 3 -269 27 -288 21 -17
42 -19 257 -19 229 0 233 0 248 22 20 29 20 62 0 82 -13 13 -45 16 -195 16
l-179 0 0 85 0 85 138 0 c151 0 162 4 162 55 0 51 -11 55 -162 55 l-138 0 0
75 0 75 168 0 c196 0 212 5 212 70 0 29 -5 42 -19 50 -12 6 -109 10 -245 10
-211 0 -227 -1 -245 -19z"/>
</g>
</svg>
